<?xml version="1.0" encoding="UTF-8" standalone="no"?>
<!DOCTYPE svg PUBLIC "-//W3C//DTD SVG 1.1//EN" "http://www.w3.org/Graphics/SVG/1.1/DTD/svg11.dtd">
<svg width="100%" height="100%" viewBox="0 0 2040 670" version="1.1" xmlns="http://www.w3.org/2000/svg" xmlns:xlink="http://www.w3.org/1999/xlink" xml:space="preserve" xmlns:serif="http://www.serif.com/" style="fill-rule:evenodd;clip-rule:evenodd;stroke-linejoin:round;stroke-miterlimit:2;">
    <g transform="matrix(1,0,0,1,-1266.035835,-809.893187)">
        <g transform="matrix(1,0,0,1.008142,-0.863,-7.487281)">
            <g transform="matrix(2.534817,0,0,2.514345,1221.023494,786.528273)">
                <path d="M643.529,79.406C693.734,98.273 688.048,136.968 687.871,180.502C687.856,184.109 694.209,240.449 652.286,264.123C616.218,284.491 582.915,267.026 577.625,264.252C563.709,256.955 555.513,251.79 542.228,263.17C523.766,278.984 496.099,243.237 539.44,227.335C579.123,212.776 599.53,255.591 634.335,236.216C654.329,225.085 655.83,200.535 653.504,200.442C651.645,200.368 632.597,216.557 598.599,205.206C538.244,185.056 541.948,80.782 618.514,75.931C630.392,75.178 641.606,78.787 643.529,79.406ZM615.455,175.711C575.015,163.864 587.241,115.145 614.497,109.488C665.074,98.989 671.665,182.243 615.455,175.711Z" style="fill:rgb(249,246,241);fill-opacity:0.98;"/>
                <path d="M136.58,9.832C137.943,9.687 147.88,8.63 153.253,13.765C156.162,16.544 157.665,20.688 158.033,22.59C158.837,26.737 158.388,189.553 158.343,192.499C158.067,210.564 135.236,216.493 126.041,200.746C124.535,198.167 123.851,199.516 121.289,201.107C117.932,203.192 100.028,214.311 72.55,209.187C-0.931,195.485 0.832,88.569 72.546,74.73C102.004,69.046 122.709,83.637 123.415,83.31C125.784,82.215 122.044,28.594 125.37,19.444C127.459,13.694 135.492,10.292 136.58,9.832ZM74.551,176.372C35.572,158.58 52.016,105.652 86.491,105.147C142.134,104.332 133.678,194.107 74.551,176.372Z" style="fill:rgb(249,246,241);fill-opacity:0.98;"/>
                <path d="M261.467,93.511C262.418,96.772 284.552,166.998 290.957,174.005C297.286,180.929 303.434,172.077 304.044,171.197C315.306,154.98 318.899,104.491 339.873,87.966C365.083,68.102 417.217,75.474 417.841,126.499C418.134,150.509 412.464,180.241 443.491,177.389C467.053,175.224 463.261,148.417 463.279,125.498C463.297,100.258 460.352,84.024 477.476,81.378C487.848,79.775 496.341,87.192 496.491,96.5C497.523,160.158 495.158,167.556 493.284,173.423C477.307,223.422 400.666,222.239 387.835,175.413C379.391,144.6 394.966,105.64 366.608,110.969C345.93,114.855 349.895,188.019 313.416,206.333C304.306,210.907 278.738,215.875 262.979,191.191C252.897,175.398 228.488,101.944 229.313,96.474C232.479,75.473 255.164,79.129 260.334,90.58C260.765,91.534 261.036,92.556 261.467,93.511Z" style="fill:rgb(249,246,241);fill-opacity:0.98;"/>
                <path d="M803.68,89.305C806.599,92.141 825.059,110.077 822.61,136.511C820.764,156.452 801.58,153.519 781.5,153.491C732.145,153.423 730.241,152.839 730.574,155.489C732.089,167.553 757.241,193.913 793.223,170.101C811.332,158.117 832.597,184.828 804.37,200.275C758.192,225.545 688.85,202.926 696.619,131.514C701.757,84.286 758.428,52.057 803.68,89.305ZM731.376,124.461C744.188,93.005 784.754,99.278 790.095,124.565C790.92,128.471 788.374,127.855 768.502,127.851C731.861,127.844 730.865,128.11 730.811,126.501C730.787,125.796 731.4,125.167 731.376,124.461Z" style="fill:rgb(249,246,241);fill-opacity:0.98;"/>
                <path d="M539.603,21.384C547.928,29.087 544.785,31.106 545.592,141.5C545.993,196.295 545.516,197.14 543.164,201.312C535.624,214.683 512.085,211.503 511.654,192.496C511.408,181.675 511.598,52.66 511.616,40.501C511.618,39.153 510.228,27.997 516.793,21.824C521.76,17.153 528.426,17.5 529.497,17.555C534.7,17.826 538.904,20.876 539.603,21.384Z" style="fill:rgb(249,246,241);fill-opacity:0.99;"/>
                <path d="M217.683,170.501C217.737,190.734 220.381,205.536 204.458,209.31C195.287,211.483 183.418,205.637 183.251,192.5C183.144,184.106 182.006,94.583 183.799,87.569C188.516,69.117 217.345,71.27 217.758,92.494C217.834,96.414 217.742,151.255 217.683,170.501Z" style="fill:rgb(249,246,241);fill-opacity:0.98;"/>
                <path d="M206.519,19.437C238.108,31.665 213.924,70.889 189.807,56.005C174.613,46.628 178.29,14.259 206.519,19.437Z" style="fill:rgb(249,246,241);fill-opacity:0.97;"/>
            </g>
        </g>
    </g>
</svg>
