<svg version="1.1" id="Layer_1" xmlns="http://www.w3.org/2000/svg" xmlns:xlink="http://www.w3.org/1999/xlink" x="0px" y="0px"
	 width="100%" viewBox="0 0 487 273" enable-background="new 0 0 487 273" xml:space="preserve">
<path fill="#010101" opacity="1.000000" stroke="none" 
	d="
M364.000000,274.000000 
	C242.666687,274.000000 121.833374,274.000000 1.000049,274.000000 
	C1.000032,183.000031 1.000032,92.000076 1.000016,1.000057 
	C82.166618,1.000000 163.333237,1.000000 244.499847,1.000000 
	C325.666504,1.000000 406.833130,1.000000 487.999817,1.000000 
	C487.999878,91.999916 487.999878,182.999832 487.999939,273.999878 
	C446.833344,274.000000 405.666656,274.000000 364.000000,274.000000 
M224.307953,205.724594 
	C233.829117,179.101242 232.909775,152.710297 221.896667,126.800789 
	C201.494568,78.802742 146.405304,55.143433 99.109306,74.174095 
	C91.088905,77.401306 83.756676,82.338806 75.799316,86.652672 
	C75.799316,59.844860 75.799316,32.948593 75.799316,6.137083 
	C52.467144,6.137083 29.575563,6.137083 6.581875,6.137083 
	C6.581875,93.631676 6.581875,180.730469 6.581875,268.058960 
	C29.369493,268.058960 51.918594,268.058960 75.029053,268.058960 
	C75.029053,261.890015 75.029053,256.035187 75.029053,249.624054 
	C77.647186,251.583649 79.588547,253.106445 81.599464,254.531006 
	C101.693298,268.765869 124.209358,273.401978 148.086456,269.244385 
	C185.061752,262.806061 209.992493,241.016266 224.307953,205.724594 
M357.467529,24.945301 
	C314.687805,105.886909 271.908112,186.828522 228.680939,268.616730 
	C231.476868,268.616730 233.264908,268.615631 235.052948,268.616852 
	C261.047638,268.634399 287.043091,268.557800 313.036255,268.765381 
	C317.249512,268.799011 319.418579,267.541840 321.392426,263.690369 
	C361.972870,184.507858 402.725739,105.413719 443.436249,26.297865 
	C446.833527,19.695606 450.173462,13.063856 453.781250,5.971680 
	C451.687103,5.878281 450.250366,5.758325 448.813599,5.758429 
	C423.652374,5.760245 398.489563,5.924876 373.331390,5.654291 
	C368.772034,5.605254 366.485413,7.025607 364.754486,11.035540 
	C362.783356,15.601944 360.155457,19.884855 357.467529,24.945301 
M445.864532,259.349976 
	C458.036041,232.078552 470.207581,204.807144 482.541046,177.172913 
	C481.251251,177.002335 480.639099,176.851074 480.026855,176.850494 
	C452.533508,176.824387 425.039825,176.873291 397.547363,176.709747 
	C394.509338,176.691681 393.633484,178.227768 392.586517,180.430969 
	C379.529175,207.908066 366.412231,235.356857 353.328064,262.821228 
	C352.526154,264.504425 351.870819,266.257477 350.973541,268.391266 
	C378.659393,268.391266 405.642548,268.116608 432.613098,268.578491 
	C439.626068,268.698578 444.010040,267.123718 445.864532,259.349976 
z"/>
<path fill="#FDFDFD" opacity="1.000000" stroke="none" 
	d="
M224.186005,206.095947 
	C209.992493,241.016266 185.061752,262.806061 148.086456,269.244385 
	C124.209358,273.401978 101.693298,268.765869 81.599464,254.531006 
	C79.588547,253.106445 77.647186,251.583649 75.029053,249.624054 
	C75.029053,256.035187 75.029053,261.890015 75.029053,268.058960 
	C51.918594,268.058960 29.369493,268.058960 6.581875,268.058960 
	C6.581875,180.730469 6.581875,93.631676 6.581875,6.137083 
	C29.575563,6.137083 52.467144,6.137083 75.799316,6.137083 
	C75.799316,32.948593 75.799316,59.844860 75.799316,86.652672 
	C83.756676,82.338806 91.088905,77.401306 99.109306,74.174095 
	C146.405304,55.143433 201.494568,78.802742 221.896667,126.800789 
	C232.909775,152.710297 233.829117,179.101242 224.186005,206.095947 
M86.324928,142.866379 
	C85.461327,144.088882 84.551765,145.281738 83.740997,146.538330 
	C71.057411,166.196426 77.451645,193.360718 97.460808,204.870987 
	C117.703094,216.515366 143.565979,208.683060 154.215012,187.683578 
	C163.463837,169.445297 157.735886,146.816483 140.862686,134.853195 
	C125.773857,124.155029 101.092072,124.956573 86.324928,142.866379 
z"/>
<path fill="#FDFDFD" opacity="1.000000" stroke="none" 
	d="
M357.640289,24.618141 
	C360.155457,19.884855 362.783356,15.601944 364.754486,11.035540 
	C366.485413,7.025607 368.772034,5.605254 373.331390,5.654291 
	C398.489563,5.924876 423.652374,5.760245 448.813599,5.758429 
	C450.250366,5.758325 451.687103,5.878281 453.781250,5.971680 
	C450.173462,13.063856 446.833527,19.695606 443.436249,26.297865 
	C402.725739,105.413719 361.972870,184.507858 321.392426,263.690369 
	C319.418579,267.541840 317.249512,268.799011 313.036255,268.765381 
	C287.043091,268.557800 261.047638,268.634399 235.052948,268.616852 
	C233.264908,268.615631 231.476868,268.616730 228.680939,268.616730 
	C271.908112,186.828522 314.687805,105.886909 357.640289,24.618141 
z"/>
<path fill="#FEFEFE" opacity="1.000000" stroke="none" 
	d="
M445.691315,259.688965 
	C444.010040,267.123718 439.626068,268.698578 432.613098,268.578491 
	C405.642548,268.116608 378.659393,268.391266 350.973541,268.391266 
	C351.870819,266.257477 352.526154,264.504425 353.328064,262.821228 
	C366.412231,235.356857 379.529175,207.908066 392.586517,180.430969 
	C393.633484,178.227768 394.509338,176.691681 397.547363,176.709747 
	C425.039825,176.873291 452.533508,176.824387 480.026855,176.850494 
	C480.639099,176.851074 481.251251,177.002335 482.541046,177.172913 
	C470.207581,204.807144 458.036041,232.078552 445.691315,259.688965 
z"/>
<path fill="#020202" opacity="1.000000" stroke="none" 
	d="
M86.552841,142.590942 
	C101.092072,124.956573 125.773857,124.155029 140.862686,134.853195 
	C157.735886,146.816483 163.463837,169.445297 154.215012,187.683578 
	C143.565979,208.683060 117.703094,216.515366 97.460808,204.870987 
	C77.451645,193.360718 71.057411,166.196426 83.740997,146.538330 
	C84.551765,145.281738 85.461327,144.088882 86.552841,142.590942 
z"/>
</svg>